<svg version="1.1" id="Layer_1" xmlns="http://www.w3.org/2000/svg" xmlns:xlink="http://www.w3.org/1999/xlink" x="0px" y="0px"
	 viewBox="0 0 141.7 141.7" style="enable-background:new 0 0 141.7 141.7;" xml:space="preserve">
<path d="M16.8,64.8"/>
<g>
	<path d="M74.4,45.6l-7.8,8.9H43.4v39.3l-18.1,0.4V10.5c0-1.3,1.1-2.3,2.5-2.3h65.9v14.2H45.3v23.2H74.4"/>
	<path d="M25.9,113.5"/>
	<path d="M120.9,53.1c0,1.6-3.1,5.7-9.2,12.2h-1.3c-1-0.3-1.6-1.6-1.8-3.7c-0.5-4.3-2.2-7.9-5.1-10.7c-3.8-3.6-8.5-4.9-14.3-3.7
		c-1,0.2-1.9,0.6-2.7,1c-4.7,2.8-7.1,6.4-7.1,10.9c0,2.4,0.9,5.1,2.6,7.9c1.7,2.8,6.2,7.2,13.4,13.3c7.2,6.1,11.9,10.9,13.9,14.5
		c2.1,3.6,3.1,7,3.1,10.3c0,7.5-3.7,14.1-11.1,19.8c-7.4,5.7-16,8.6-25.9,8.6c-8.2,0-14.9-1.7-20.2-5c-5.3-3.4-8-6.1-8-8.2
		c0-1.2,1.5-3.9,4.4-8.2c2.9-4.3,4.6-6.5,5-6.5c1.5,0,2.6,0.4,3.3,1.2c0.6,0.8,1.1,2.2,1.3,4.3c0.7,6.6,2.5,11.1,5.4,13.6
		c3.6,3.1,8.6,4.3,14.9,3.5c2.3-0.3,4.6-1.1,6.5-2.2c5.8-3.6,8.7-7.9,8.7-13c0-2.1-0.7-4.4-2.2-6.7c-1.5-2.4-5.6-6.4-12.4-12.2
		C75.4,88.4,71,83.6,68.9,79.6c-2.1-4-3.1-7.8-3.2-11.6c0-6.3,2.6-11.9,8.4-18c5.3-5.7,13-8.2,22.3-8.2c7,0,12.9,1.4,17.5,4.3
		C118.6,48.9,120.9,51.2,120.9,53.1z"/>
</g>
</svg>
